<svg width="15" height="15" viewBox="0 0 15 15" fill="none" xmlns="http://www.w3.org/2000/svg">
<path d="M6.38454 8.25658C6.80225 7.83887 7.47949 7.83887 7.8972 8.25658C8.31491 8.67429 8.31491 9.35153 7.8972 9.76924C7.47949 10.1869 6.80225 10.1869 6.38454 9.76924C5.96683 9.35153 5.96683 8.67429 6.38454 8.25658Z" fill="#745625"/>
<path d="M7.8972 6.74391C8.31491 6.3262 8.99215 6.3262 9.40986 6.74391C9.82757 7.16162 9.82757 7.83887 9.40986 8.25658C8.99215 8.67429 8.31491 8.67429 7.8972 8.25658C7.47949 7.83887 7.47949 7.16162 7.8972 6.74391Z" fill="#745625"/>
<path d="M4.87188 6.74391C5.28959 6.3262 5.96683 6.3262 6.38454 6.74391C6.80225 7.16162 6.80225 7.83887 6.38454 8.25658C5.96683 8.67429 5.28959 8.67429 4.87188 8.25658C4.45417 7.83887 4.45417 7.16162 4.87188 6.74391Z" fill="#745625"/>
<path d="M6.38454 5.23125C6.80225 4.81354 7.47949 4.81354 7.8972 5.23125C8.31491 5.64896 8.31491 6.3262 7.8972 6.74391C7.47949 7.16162 6.80225 7.16162 6.38454 6.74391C5.96683 6.3262 5.96683 5.64896 6.38454 5.23125Z" fill="#745625"/>
</svg>
