<svg width="40" height="40" viewBox="0 0 40 40" fill="none" xmlns="http://www.w3.org/2000/svg">
<path fill-rule="evenodd" clip-rule="evenodd" d="M20 4C24.4183 4 28 7.58172 28 12C28 12.1679 27.9941 12.3346 27.9839 12.5C27.9893 12.5 27.9946 12.5 28 12.5C32.4183 12.5 36 16.0817 36 20.5C36 24.9183 32.4183 28.5 28 28.5C27.9946 28.5 27.9893 28.4995 27.9839 28.4995C27.726 32.6851 24.2505 36 20 36C15.7495 36 12.2735 32.6851 12.0156 28.4995C12.0104 28.4995 12.0052 28.5 12 28.5C7.58172 28.5 4 24.9183 4 20.5C4 16.0817 7.58172 12.5 12 12.5C12.0052 12.5 12.0104 12.5 12.0156 12.5C12.0054 12.3346 12 12.1679 12 12C12 7.58172 15.5817 4 20 4Z" fill="#E7893C"/>
<path d="M20 4C24.4183 4 28 7.58172 28 12C28 12.1679 27.9946 12.3346 27.9844 12.5H28C32.4183 12.5 36 16.0817 36 20.5C36 24.9183 32.4183 28.5 28 28.5C27.9948 28.5 27.9896 28.5 27.9844 28.5C27.7263 32.6854 24.2503 36 20 36C15.7497 36 12.2737 32.6854 12.0156 28.5H12C7.58172 28.5 4 24.9183 4 20.5C4 16.0817 7.58172 12.5 12 12.5C12.0052 12.5 12.0104 12.5 12.0156 12.5C12.0054 12.3346 12 12.1679 12 12C12 7.58172 15.5817 4 20 4ZM20 6.66667C17.0545 6.66667 14.6667 9.05448 14.6667 12C14.6667 12.1105 14.6701 12.2225 14.6771 12.3359L14.8516 15.1719L12.0104 15.1667H12C9.05448 15.1667 6.66667 17.5545 6.66667 20.5C6.66667 23.4455 9.05448 25.8333 12 25.8333C11.9613 25.8333 11.9299 25.834 11.9115 25.8346C11.9023 25.835 11.895 25.8357 11.8906 25.8359H11.8932C11.8984 25.8357 11.9066 25.835 11.9167 25.8346C11.9368 25.8339 11.97 25.8334 12.0104 25.8333L14.5221 25.8281L14.6771 28.3359C14.849 31.1238 17.1676 33.3333 20 33.3333C22.8322 33.3333 25.1509 31.124 25.3229 28.3359L25.4766 25.8281L27.9896 25.8333C28.0283 25.8334 28.0599 25.834 28.0794 25.8346C28.0893 25.835 28.0977 25.8357 28.1029 25.8359H28.1055C28.1012 25.8358 28.0935 25.8349 28.0846 25.8346C28.0668 25.834 28.037 25.8333 28 25.8333C30.9455 25.8333 33.3333 23.4455 33.3333 20.5C33.3333 17.5545 30.9455 15.1667 28 15.1667H27.9896L25.1471 15.1719L25.3229 12.3359C25.3303 12.217 25.3333 12.1055 25.3333 12C25.3333 9.05448 22.9455 6.66667 20 6.66667Z" fill="#F2C097"/>
</svg>
