<svg width="40" height="40" viewBox="0 0 40 40" fill="none" xmlns="http://www.w3.org/2000/svg">
<path d="M34.5454 21.3714C34.5454 29.4505 28.0332 36 20 36C11.9668 36 5.45453 29.4505 5.45453 21.3714C5.45453 13.9115 11.0067 7.75579 18.1818 6.85595C19.7942 5.55307 20 4 20 4C20 4 20.2063 5.55363 21.8182 6.8564C28.9936 7.75594 34.5454 13.9113 34.5454 21.3714Z" fill="#E73D3D"/>
<path d="M31.6363 21.3707C31.636 15.383 27.1812 10.4606 21.4559 9.7429C20.9228 9.676 20.4192 9.4622 20 9.12642C19.5808 9.46211 19.077 9.67602 18.544 9.7429C12.819 10.4609 8.36394 15.3833 8.36362 21.3707C8.36362 27.8589 13.589 33.0909 20 33.0909V36C11.9668 36 5.45453 29.4499 5.45453 21.3707C5.45485 13.9112 11.0069 7.75638 18.1818 6.85653C19.7942 5.55366 20 4 20 4C20 4 20.2063 5.55377 21.8182 6.85653C28.9934 7.75606 34.5451 13.9109 34.5454 21.3707C34.5454 29.4499 28.0332 36 20 36V33.0909C26.411 33.0909 31.6363 27.8589 31.6363 21.3707Z" fill="#F29797"/>
</svg>
