<svg width="40" height="40" viewBox="0 0 40 40" fill="none" xmlns="http://www.w3.org/2000/svg">
<path d="M7.39918 21.8589C6.37248 20.8322 6.37247 19.1676 7.39918 18.1409L18.1409 7.39918C19.1676 6.37248 20.8322 6.37247 21.8589 7.39918L32.6006 18.1409C33.6273 19.1676 33.6273 20.8322 32.6006 21.8589L21.8589 32.6006C20.8322 33.6273 19.1676 33.6273 18.1409 32.6006L7.39918 21.8589Z" fill="#3C80E7"/>
<path d="M16.2814 5.54054C18.3348 3.48714 21.6645 3.48713 23.718 5.54054L34.4601 16.2814C36.5134 18.3347 36.5133 21.6645 34.4601 23.7179L23.718 34.46C21.6645 36.5132 18.3348 36.5133 16.2814 34.46L5.54061 23.7179C3.4872 21.6645 3.4872 18.3348 5.54061 16.2814L16.2814 5.54054ZM21.8591 7.39936C20.8325 6.37272 19.1682 6.37285 18.1415 7.39936L7.39942 18.1415L7.21842 18.3404C6.37628 19.373 6.43692 20.8966 7.39942 21.8591L18.1415 32.6012C19.104 33.5631 20.6265 33.6228 21.6589 32.7809L21.8591 32.6012L32.6012 21.8591C33.5636 20.8965 33.6232 19.373 32.781 18.3404L32.6012 18.1415L21.8591 7.39936Z" fill="#97BBF2"/>
</svg>
