<svg width="40" height="40" viewBox="0 0 40 40" fill="none" xmlns="http://www.w3.org/2000/svg">
<path d="M9.33331 15.2982C9.33331 9.7947 13.7948 5.33325 19.2982 5.33325H20H20.7017C26.2052 5.33325 30.6666 9.7947 30.6666 15.2982V34.6666H20H9.33331V15.2982Z" fill="#3CE753"/>
<path d="M20.7018 4C26.9416 4.00004 32 9.05838 32 15.2982V34.6667C32 35.403 31.403 36 30.6667 36H9.33333C8.59695 36 8 35.403 8 34.6667V15.2982C8.00004 9.05838 13.0584 4.00004 19.2982 4H20.7018ZM21.3333 33.3333H29.3333V16.6315H21.3333V33.3333ZM10.6667 33.3333H18.6667V16.6315H10.6667V33.3333ZM19.2982 6.66667C14.9846 6.6667 11.4106 9.83094 10.7695 13.9648H29.2305C28.5894 9.83094 25.0154 6.6667 20.7018 6.66667H19.2982Z" fill="#97F2A3"/>
</svg>
